<svg xmlns="http://www.w3.org/2000/svg" width="550" height="544" viewBox="0 0 550 544" fill="none">
  <g stroke="#fff" stroke-linecap="round" stroke-linejoin="round">
    <!-- Canada outline - north -->
    <path d="M80 340 L95 320 L110 330 L130 310 L145 315 L160 295 L175 300 L190 280 L210 285 L225 270 L240 275 L260 260 L280 265 L300 250 L320 255 L340 240 L355 248 L370 235 L390 240 L405 230 L420 238 L440 225 L455 235 L470 228" stroke-width="2.5" opacity="0.3"/>
    <!-- Canada outline - south -->
    <path d="M80 340 L90 360 L105 370 L120 365 L140 375 L155 368 L170 378 L190 372 L210 382 L230 375 L250 385 L270 378 L290 388 L310 382 L330 390 L350 384 L370 392 L390 386 L410 394 L430 388 L450 395 L470 390 L470 228" stroke-width="2.5" opacity="0.3"/>

    <!-- Province dividers -->
    <line x1="165" y1="270" x2="165" y2="400" stroke-width="1" opacity="0.15"/>
    <line x1="235" y1="255" x2="235" y2="395" stroke-width="1" opacity="0.15"/>
    <line x1="305" y1="245" x2="305" y2="395" stroke-width="1" opacity="0.15"/>
    <line x1="375" y1="232" x2="375" y2="395" stroke-width="1" opacity="0.15"/>

    <!-- BC -->
    <circle cx="120" cy="330" r="14" fill="#fff" fill-opacity="0.12" stroke="none"/>
    <circle cx="120" cy="330" r="6" fill="#fff" fill-opacity="0.6" stroke="none"/>
    <text x="120" y="360" font-family="system-ui, sans-serif" font-size="13" fill="#fff" fill-opacity="0.5" text-anchor="middle" stroke="none">BC</text>

    <!-- AB -->
    <circle cx="195" cy="310" r="14" fill="#fff" fill-opacity="0.12" stroke="none"/>
    <circle cx="195" cy="310" r="6" fill="#fff" fill-opacity="0.6" stroke="none"/>
    <text x="195" y="340" font-family="system-ui, sans-serif" font-size="13" fill="#fff" fill-opacity="0.5" text-anchor="middle" stroke="none">AB</text>

    <!-- SK -->
    <circle cx="270" cy="300" r="14" fill="#fff" fill-opacity="0.12" stroke="none"/>
    <circle cx="270" cy="300" r="6" fill="#fff" fill-opacity="0.6" stroke="none"/>
    <text x="270" y="330" font-family="system-ui, sans-serif" font-size="13" fill="#fff" fill-opacity="0.5" text-anchor="middle" stroke="none">SK</text>

    <!-- ON - highlighted -->
    <circle cx="340" cy="290" r="22" fill="#fff" fill-opacity="0.08" stroke="none"/>
    <circle cx="340" cy="290" r="14" fill="#fff" fill-opacity="0.15" stroke="none"/>
    <circle cx="340" cy="290" r="7" fill="#fff" fill-opacity="0.9" stroke="none"/>
    <text x="340" y="324" font-family="system-ui, sans-serif" font-size="14" fill="#fff" fill-opacity="0.8" text-anchor="middle" font-weight="600" stroke="none">ON</text>

    <!-- QC -->
    <circle cx="410" cy="280" r="14" fill="#fff" fill-opacity="0.12" stroke="none"/>
    <circle cx="410" cy="280" r="6" fill="#fff" fill-opacity="0.6" stroke="none"/>
    <text x="410" y="310" font-family="system-ui, sans-serif" font-size="13" fill="#fff" fill-opacity="0.5" text-anchor="middle" stroke="none">QC</text>

    <!-- ATL -->
    <circle cx="460" cy="295" r="14" fill="#fff" fill-opacity="0.12" stroke="none"/>
    <circle cx="460" cy="295" r="6" fill="#fff" fill-opacity="0.6" stroke="none"/>
    <text x="460" y="325" font-family="system-ui, sans-serif" font-size="13" fill="#fff" fill-opacity="0.5" text-anchor="middle" stroke="none">ATL</text>

    <!-- Info panel -->
    <rect x="280" y="130" width="220" height="120" rx="12" fill="#fff" fill-opacity="0.06" stroke-width="1.5" opacity="0.2"/>
    <text x="300" y="160" font-family="system-ui, sans-serif" font-size="14" fill="#fff" fill-opacity="0.7" font-weight="600" stroke="none">Ontario Programs</text>
    <line x1="300" y1="172" x2="480" y2="172" stroke-width="1" opacity="0.1"/>
    <circle cx="310" cy="192" r="4" fill="#fff" fill-opacity="0.4" stroke="none"/>
    <text x="322" y="196" font-family="system-ui, sans-serif" font-size="12" fill="#fff" fill-opacity="0.45" stroke="none">Land Transfer Tax Rebate</text>
    <circle cx="310" cy="216" r="4" fill="#fff" fill-opacity="0.4" stroke="none"/>
    <text x="322" y="220" font-family="system-ui, sans-serif" font-size="12" fill="#fff" fill-opacity="0.45" stroke="none">OHPTC Tax Credit</text>

    <!-- Connection line -->
    <path d="M340 276 L340 260 Q340 250 350 250 L290 250 Q280 250 280 250" stroke-width="1.5" opacity="0.2" stroke-dasharray="4 3"/>
  </g>
</svg>
