<svg width="70" height="28" viewBox="0 0 99 28" fill="none" xmlns="http://www.w3.org/2000/svg">
<path d="M15.1119 4.24585L11.3462 10.9307H25.9091L18.5273 23.7542H10.7972L14.5629 17.0693H0L7.38178 4.24585H15.1119Z" fill="#9A5CD0"/>
<path d="M34.1883 20.0001V6.17479H39.1163C40.1919 6.17479 41.083 6.37055 41.7895 6.76209C42.4961 7.15363 43.0249 7.68918 43.3759 8.36874C43.727 9.0438 43.9025 9.80437 43.9025 10.6504C43.9025 11.501 43.7247 12.2661 43.3692 12.9457C43.0181 13.6207 42.4871 14.1563 41.776 14.5523C41.0695 14.9438 40.1806 15.1396 39.1095 15.1396H35.7207V13.3709H38.9205C39.6001 13.3709 40.1514 13.2539 40.5744 13.0199C40.9975 12.7814 41.308 12.4574 41.506 12.0478C41.704 11.6383 41.803 11.1725 41.803 10.6504C41.803 10.1284 41.704 9.66486 41.506 9.25982C41.308 8.85478 40.9952 8.5375 40.5677 8.30798C40.1446 8.07846 39.5866 7.9637 38.8935 7.9637H36.2743V20.0001H34.1883ZM48.2043 6.17479V20.0001H46.1859V6.17479H48.2043ZM53.9373 20.2296C53.2802 20.2296 52.6862 20.1081 52.1551 19.865C51.6241 19.6175 51.2033 19.2597 50.8927 18.7917C50.5867 18.3237 50.4337 17.7499 50.4337 17.0703C50.4337 16.4852 50.5462 16.0037 50.7712 15.6257C50.9962 15.2476 51.3 14.9483 51.6826 14.7278C52.0651 14.5073 52.4926 14.3408 52.9652 14.2283C53.4377 14.1158 53.9193 14.0303 54.4098 13.9718C55.0309 13.8997 55.5349 13.8412 55.922 13.7962C56.309 13.7467 56.5903 13.668 56.7658 13.56C56.9413 13.452 57.0291 13.2764 57.0291 13.0334V12.9862C57.0291 12.3966 56.8625 11.9398 56.5295 11.6158C56.201 11.2918 55.7104 11.1297 55.0579 11.1297C54.3783 11.1297 53.8428 11.2805 53.4512 11.582C53.0642 11.8791 52.7964 12.2098 52.6479 12.5744L50.751 12.1423C50.976 11.5123 51.3045 11.0037 51.7366 10.6167C52.1731 10.2252 52.6749 9.94163 53.242 9.76612C53.809 9.5861 54.4053 9.49609 55.0309 9.49609C55.4449 9.49609 55.8837 9.5456 56.3472 9.64461C56.8153 9.73912 57.2518 9.91463 57.6569 10.1712C58.0664 10.4277 58.4017 10.7945 58.6627 11.2715C58.9237 11.744 59.0542 12.3584 59.0542 13.1144V20.0001H57.0831V18.5824H57.0021C56.8715 18.8435 56.6758 19.1 56.4147 19.352C56.1537 19.604 55.8184 19.8133 55.4089 19.9798C54.9994 20.1463 54.5088 20.2296 53.9373 20.2296ZM54.3761 18.6094C54.9341 18.6094 55.4112 18.4992 55.8072 18.2787C56.2077 18.0581 56.5115 17.7701 56.7185 17.4146C56.93 17.0545 57.0358 16.6698 57.0358 16.2602V14.9236C56.9638 14.9956 56.8243 15.0631 56.6173 15.1261C56.4147 15.1846 56.183 15.2364 55.922 15.2814C55.6609 15.3219 55.4067 15.3601 55.1591 15.3961C54.9116 15.4276 54.7046 15.4546 54.5381 15.4771C54.1465 15.5266 53.7888 15.6099 53.4647 15.7269C53.1452 15.8439 52.8887 16.0127 52.6952 16.2332C52.5061 16.4492 52.4116 16.7373 52.4116 17.0973C52.4116 17.5968 52.5961 17.9749 52.9652 18.2314C53.3342 18.4834 53.8045 18.6094 54.3761 18.6094ZM69.5126 12.1626L67.6832 12.4866C67.6067 12.2526 67.4852 12.0298 67.3187 11.8183C67.1567 11.6068 66.9362 11.4335 66.6571 11.2985C66.3781 11.1635 66.0293 11.096 65.6108 11.096C65.0392 11.096 64.5622 11.2243 64.1797 11.4808C63.7971 11.7328 63.6058 12.0591 63.6058 12.4596C63.6058 12.8061 63.7341 13.0852 63.9906 13.2967C64.2472 13.5082 64.6612 13.6815 65.2327 13.8165L66.8799 14.1945C67.834 14.415 68.5451 14.7548 69.0131 15.2139C69.4811 15.6729 69.7152 16.2692 69.7152 17.0028C69.7152 17.6238 69.5351 18.1774 69.1751 18.6634C68.8196 19.145 68.3223 19.523 67.6832 19.7975C67.0487 20.0721 66.3128 20.2093 65.4758 20.2093C64.3147 20.2093 63.3673 19.9618 62.6338 19.4668C61.9002 18.9672 61.4501 18.2584 61.2836 17.3403L63.2346 17.0433C63.3561 17.5518 63.6058 17.9366 63.9839 18.1976C64.3619 18.4542 64.8547 18.5824 65.4623 18.5824C66.1238 18.5824 66.6526 18.4452 67.0487 18.1706C67.4447 17.8916 67.6427 17.5518 67.6427 17.1513C67.6427 16.8273 67.5212 16.555 67.2782 16.3345C67.0397 16.114 66.6729 15.9474 66.1778 15.8349L64.4227 15.4501C63.4551 15.2296 62.7395 14.8786 62.276 14.397C61.8169 13.9155 61.5874 13.3057 61.5874 12.5676C61.5874 11.9556 61.7584 11.42 62.1005 10.961C62.4425 10.5019 62.915 10.1442 63.5181 9.88763C64.1211 9.6266 64.812 9.49609 65.5905 9.49609C66.7111 9.49609 67.5932 9.73912 68.2368 10.2252C68.8803 10.7067 69.3056 11.3525 69.5126 12.1626ZM71.9344 20.0001V9.6311H73.8719V11.3188H74.0001C74.2161 10.7472 74.5694 10.3017 75.06 9.98214C75.5505 9.65811 76.1378 9.49609 76.8219 9.49609C77.5149 9.49609 78.0955 9.65811 78.5635 9.98214C79.0361 10.3062 79.3849 10.7517 79.6099 11.3188H79.7179C79.9654 10.7652 80.3592 10.3242 80.8993 9.99564C81.4393 9.66261 82.0829 9.49609 82.8299 9.49609C83.7705 9.49609 84.5378 9.79087 85.1319 10.3804C85.7304 10.97 86.0297 11.8588 86.0297 13.0469V20.0001H84.0113V13.2359C84.0113 12.5339 83.82 12.0253 83.4375 11.7103C83.055 11.3953 82.5982 11.2378 82.0671 11.2378C81.4101 11.2378 80.8993 11.4403 80.5347 11.8453C80.1702 12.2458 79.9879 12.7611 79.9879 13.3912V20.0001H77.9762V13.1077C77.9762 12.5451 77.8007 12.0928 77.4497 11.7508C77.0987 11.4088 76.6419 11.2378 76.0793 11.2378C75.6968 11.2378 75.3435 11.339 75.0195 11.5415C74.6999 11.7395 74.4412 12.0163 74.2431 12.3719C74.0496 12.7274 73.9529 13.1392 73.9529 13.6072V20.0001H71.9344ZM91.7526 20.2296C91.0955 20.2296 90.5015 20.1081 89.9704 19.865C89.4394 19.6175 89.0186 19.2597 88.708 18.7917C88.402 18.3237 88.249 17.7499 88.249 17.0703C88.249 16.4852 88.3615 16.0037 88.5865 15.6257C88.8115 15.2476 89.1153 14.9483 89.4979 14.7278C89.8804 14.5073 90.3079 14.3408 90.7805 14.2283C91.253 14.1158 91.7346 14.0303 92.2251 13.9718C92.8462 13.8997 93.3502 13.8412 93.7372 13.7962C94.1243 13.7467 94.4056 13.668 94.5811 13.56C94.7566 13.452 94.8444 13.2764 94.8444 13.0334V12.9862C94.8444 12.3966 94.6778 11.9398 94.3448 11.6158C94.0163 11.2918 93.5257 11.1297 92.8732 11.1297C92.1936 11.1297 91.6581 11.2805 91.2665 11.582C90.8795 11.8791 90.6117 12.2098 90.4632 12.5744L88.5663 12.1423C88.7913 11.5123 89.1198 11.0037 89.5519 10.6167C89.9884 10.2252 90.4902 9.94163 91.0573 9.76612C91.6243 9.5861 92.2206 9.49609 92.8462 9.49609C93.2602 9.49609 93.699 9.5456 94.1625 9.64461C94.6306 9.73912 95.0671 9.91463 95.4722 10.1712C95.8817 10.4277 96.217 10.7945 96.478 11.2715C96.739 11.744 96.8695 12.3584 96.8695 13.1144V20.0001H94.8984V18.5824H94.8173C94.6868 18.8435 94.4911 19.1 94.23 19.352C93.969 19.604 93.6337 19.8133 93.2242 19.9798C92.8147 20.1463 92.3241 20.2296 91.7526 20.2296ZM92.1914 18.6094C92.7494 18.6094 93.2265 18.4992 93.6225 18.2787C94.023 18.0581 94.3268 17.7701 94.5338 17.4146C94.7453 17.0545 94.8511 16.6698 94.8511 16.2602V14.9236C94.7791 14.9956 94.6396 15.0631 94.4326 15.1261C94.23 15.1846 93.9983 15.2364 93.7372 15.2814C93.4762 15.3219 93.222 15.3601 92.9744 15.3961C92.7269 15.4276 92.5199 15.4546 92.3534 15.4771C91.9618 15.5266 91.6041 15.6099 91.28 15.7269C90.9605 15.8439 90.704 16.0127 90.5105 16.2332C90.3214 16.4492 90.2269 16.7373 90.2269 17.0973C90.2269 17.5968 90.4114 17.9749 90.7805 18.2314C91.1495 18.4834 91.6198 18.6094 92.1914 18.6094Z" fill="white"/>
</svg>
